<?xml version="1.0" encoding="utf-8"?>
<!-- Generator: Adobe Illustrator 27.5.0, SVG Export Plug-In . SVG Version: 6.00 Build 0)  -->
<svg version="1.1" xmlns="http://www.w3.org/2000/svg" xmlns:xlink="http://www.w3.org/1999/xlink" x="0px" y="0px"
	 viewBox="0 0 3710 3710" style="enable-background:new 0 0 3710 3710;" xml:space="preserve">
<g id="Background">
	<g>
		<g>
			<rect style="fill:transparent;" width="3710" height="3710"/>
		</g>
	</g>
</g>
<g id="Illustration">
	<g>
		<path style="fill:transparent;" d="M1074.332,555.198c-96.455,140.604,16.64,368.558-126.481,474.304
			c-139.318,102.936-310.466-65.79-441.764,22.817c-194.773,131.443-159.204,732.9,125.565,1106.598
			c85.64,112.384,157.197,156.111,188.89,283.211c68.052,272.917-171.119,435.265-125.604,570.246
			c102.481,303.927,1678.564,558.957,2310.959-354.443c295.354-426.596,339.545-1042.603,75.656-1510.464
			C2604.706,302.05,1290.759,239.708,1074.332,555.198z"/>
		<g>
			<g>
				<path style="fill:#EBEFF2;" d="M372.788,876.741v559.806c0,18.585,15.052,33.642,33.579,33.632l1067.902-0.636
					c16.022-0.01,28.984-13.985,28.984-31.216V919.32L372.788,876.741z"/>
				<linearGradient id="SVGID_1_" gradientUnits="userSpaceOnUse" x1="1024.1096" y1="743.1865" x2="558.6262" y2="1504.1512">
					<stop  offset="0" style="stop-color:#FFC444"/>
					<stop  offset="0.9964" style="stop-color:#F36F56"/>
				</linearGradient>
				<path style="fill:url(#SVGID_1_);" d="M1474.269,852.21L406.367,807.094c-18.527-0.783-33.579,13.647-33.579,32.233v57.362
					l1130.464,41.126v-53.181C1503.252,867.401,1490.29,852.886,1474.269,852.21z"/>
				<path style="fill:#FFFFFF;" d="M450.747,852.386c0,8.221-6.634,14.631-14.825,14.315c-8.2-0.315-14.854-7.249-14.854-15.486
					c0-8.237,6.654-14.646,14.854-14.315C444.113,837.232,450.747,844.165,450.747,852.386z"/>
			</g>
			<g>
				
					<linearGradient id="SVGID_00000015320925150074972020000002462821576630692285_" gradientUnits="userSpaceOnUse" x1="602.1064" y1="1003.4387" x2="413.412" y2="1302.941">
					<stop  offset="0" style="stop-color:#FF9085"/>
					<stop  offset="1" style="stop-color:#FB6FBB"/>
				</linearGradient>
				<path style="fill:url(#SVGID_00000015320925150074972020000002462821576630692285_);" d="M548.961,1154.218
					c10.115-19.02,29.063-32.319,51.293-34.449l1.554-95.074c-63.287,0.657-117.608,38.861-141.886,94.403L548.961,1154.218z"/>
				<path style="fill:#FFFFFF;" d="M618.019,1120.458c29.972,5.242,53.303,30.638,56.091,61.627l92.192,5.541
					c-1.173-83.816-65.121-153.89-146.734-162.127L618.019,1120.458z"/>
				<path style="fill:#FFFFFF;" d="M673.398,1200.023c-5.437,31.546-32.569,55.226-65.351,54.783
					c-9.679-0.131-18.886-2.353-27.206-6.236l-49.557,80.624c22.89,12.791,49.05,20.139,76.763,20.341
					c82.677,0.603,149.952-62.672,157.551-144.08L673.398,1200.023z"/>
				<path style="fill:#FFFFFF;" d="M516.009,1319.508l49.653-80.669c-14.975-12.673-24.544-31.727-24.544-52.895
					c0-5.115,0.563-10.086,1.622-14.857l-89.112-35.036c-4.68,15.183-7.202,31.368-7.202,48.196
					C446.426,1239.97,474.018,1289.511,516.009,1319.508z"/>
			</g>
			<g>
				<path style="fill:#FFFFFF;" d="M892.065,1161.081c9.668-18.599,27.778-31.609,49.027-33.704l1.485-92.955
					c-60.491,0.681-112.402,38.061-135.601,92.367L892.065,1161.081z"/>
				
					<linearGradient id="SVGID_00000012459773471620064380000011989443796307345339_" gradientUnits="userSpaceOnUse" x1="1022.9203" y1="1043.9558" x2="1056.9553" y2="1695.4907">
					<stop  offset="0" style="stop-color:#FFC444"/>
					<stop  offset="0.9964" style="stop-color:#F36F56"/>
				</linearGradient>
				<path style="fill:url(#SVGID_00000012459773471620064380000011989443796307345339_);" d="M958.074,1128.043
					c28.653,5.111,50.959,29.932,53.625,60.232l88.156,5.382c-1.122-81.967-62.272-150.455-140.299-158.459L958.074,1128.043z"/>
				<path style="fill:#FFFFFF;" d="M1011.019,1205.816c-5.198,30.848-31.138,54.01-62.476,53.587
					c-9.252-0.125-18.053-2.295-26.006-6.089l-47.365,78.833c21.877,12.501,46.881,19.68,73.371,19.874
					c79.042,0.576,143.373-61.313,150.64-140.926L1011.019,1205.816z"/>
				<path style="fill:#FFFFFF;" d="M860.573,1322.68l47.454-78.876c-14.313-12.385-23.458-31.009-23.458-51.703
					c0-5,0.538-9.86,1.55-14.526l-85.156-34.211c-4.472,14.844-6.882,30.665-6.882,47.114
					C794.082,1244.946,820.446,1293.365,860.573,1322.68z"/>
			</g>
			<g>
				<path style="fill:#FFFFFF;" d="M1220.152,1167.644c9.249-18.196,26.577-30.931,46.908-32.989l1.421-90.928
					c-57.876,0.703-107.535,37.293-129.724,90.417L1220.152,1167.644z"/>
				<path style="fill:#FFFFFF;" d="M1283.31,1135.297c27.419,4.986,48.766,29.258,51.317,58.898l84.38,5.231
					c-1.074-80.197-59.607-147.17-134.279-154.953L1283.31,1135.297z"/>
				<path style="fill:#FFFFFF;" d="M1333.975,1211.356c-4.975,30.179-29.799,52.846-59.787,52.441
					c-8.853-0.119-17.274-2.24-24.883-5.949l-45.316,77.12c20.93,12.223,44.852,19.242,70.198,19.427
					c75.642,0.552,137.218-60.011,144.175-137.907L1333.975,1211.356z"/>
				
					<linearGradient id="SVGID_00000173136986455292109670000014425139287299296909_" gradientUnits="userSpaceOnUse" x1="1188.1146" y1="1137.2037" x2="1140.4634" y2="1678.0439">
					<stop  offset="0" style="stop-color:#AA80F9"/>
					<stop  offset="0.9964" style="stop-color:#6165D7"/>
				</linearGradient>
				<path style="fill:url(#SVGID_00000173136986455292109670000014425139287299296909_);" d="M1190.024,1325.712l45.4-77.161
					c-13.694-12.109-22.443-30.322-22.443-50.564c0-4.891,0.514-9.645,1.483-14.208l-81.458-33.423
					c-4.277,14.519-6.582,29.993-6.582,46.08C1126.424,1249.704,1151.641,1297.05,1190.024,1325.712z"/>
			</g>
		</g>
		<g>
			<g>
				<g>
					<defs>
						<path id="SVGID_00000157989819919685486430000016682140274866056109_" d="M2104.325,2768.907
							c68.428-64.214,158.72-168.503,199.578-315.963c53.583-193.392-24.939-291.12-16.084-618.538
							c5.599-207.024,11.592-351.445,115.962-428.692c81.79-60.535,214.201-72.57,294.562-16.46
							c66.818,46.654,105.473,145.881,117.269,216.71c9.613,57.725,1.892,99.638,35.168,130.047
							c34.006,31.076,70.717,13.483,102.515,36.5c64.485,46.678,27.146,201.298,21.112,226.287
							c-67.13,277.979-323.263,465.458-435.975,545.89C2445.238,2611.193,2301.072,2699.814,2104.325,2768.907z"/>
					</defs>
					
						<linearGradient id="SVGID_00000176739789072084037610000009366780394653541051_" gradientUnits="userSpaceOnUse" x1="2697.3857" y1="1565.113" x2="2286.645" y2="3179.2551">
						<stop  offset="0" style="stop-color:#FFC444"/>
						<stop  offset="0.9964" style="stop-color:#F36F56"/>
					</linearGradient>
					
						<use xlink:href="#SVGID_00000157989819919685486430000016682140274866056109_"  style="overflow:visible;fill:url(#SVGID_00000176739789072084037610000009366780394653541051_);"/>
					<clipPath id="SVGID_00000101786305571874402270000014158060931822888364_">
						<use xlink:href="#SVGID_00000157989819919685486430000016682140274866056109_"  style="overflow:visible;"/>
					</clipPath>
					<g style="opacity:0.5;clip-path:url(#SVGID_00000101786305571874402270000014158060931822888364_);">
						<path style="fill:#FFFFFF;" d="M2026.365,2820.891l-2.498-6.567c118.775-45.135,220.958-98.942,303.717-159.93
							c121.969-89.887,197.898-192.983,225.672-306.422c21.76-88.872,14.04-181.002,3.352-308.514
							c-8.533-101.8-23.763-173.189-37.199-236.174c-17.577-82.394-31.462-147.476-21.791-241.94
							c9.813-95.845,41.413-191.12,93.914-283.179l6.107,3.483c-52.018,91.202-83.319,185.546-93.029,280.414
							c-9.562,93.363,4.22,157.966,21.67,239.756c13.48,63.191,28.759,134.81,37.326,237.054
							c10.341,123.354,18.507,220.786-3.524,310.771c-28.179,115.083-105.003,219.518-228.331,310.407
							C2248.482,2721.417,2145.734,2775.531,2026.365,2820.891z"/>
						<path style="fill:#FFFFFF;" d="M2554.217,1968.443l-3.637-1.587c-0.679-0.295-68.583-30.378-136.41-100.182
							c-62.599-64.422-138.061-176.869-142.079-346.703l7.027-0.165c3.963,167.557,78.368,278.449,140.092,341.971
							c57.998,59.688,115.814,89.815,130.578,96.954c55.723-184.021,154.567-299.464,227.929-364.028
							c80.142-70.526,148.196-97.348,148.875-97.611l2.539,6.553c-0.669,0.259-67.783,26.752-147.022,96.554
							c-73.101,64.395-171.781,179.893-226.76,364.439L2554.217,1968.443z"/>
						<path style="fill:#FFFFFF;" d="M2568.82,2244.118l-1.441-2.108c-0.666-0.976-67.639-98.537-153.919-183.192
							c-85.728-84.117-286.607-113.354-288.624-113.639l0.981-6.958c2.045,0.288,205.206,29.864,292.563,115.581
							c79.713,78.21,143.019,167.35,153.332,182.127c210.558-65.083,435.369-557.956,437.623-562.946l6.402,2.892
							c-0.566,1.259-57.802,127.351-140.627,259.527c-111.488,177.921-213.715,281.546-303.841,307.997L2568.82,2244.118z"/>
						<path style="fill:#FFFFFF;" d="M2363.089,2635.308l3.496-6.069c53.778-93.434,45.952-191.566-23.259-291.669
							c-51.874-75.024-120.686-122.988-121.376-123.465l3.994-5.783c0.697,0.482,70.435,49.065,123.053,125.095
							c68.469,98.938,77.795,200.14,27.143,293.139c24.913-3.622,114.363-18.376,226.132-57.365
							c121.228-42.287,294.265-122.547,430.195-264.767l264.168-276.391l5.078,4.855l-264.168,276.391
							c-136.942,143.279-311.125,224.066-433.132,266.607c-132.156,46.079-233.364,58.475-234.369,58.595L2363.089,2635.308z"/>
					</g>
				</g>
			</g>
			<g>
				<g>
					<defs>
						<path id="SVGID_00000040542348558204340970000004044746345929450157_" d="M2127.742,2752.985
							c133.056,65.175,311.856,129.218,510.347,133.971c50.655,1.213,363.579,8.705,389.579-122.942
							c9.159-46.373-25.019-70.847-13.857-133.062c13.226-73.719,69.677-86.543,136.982-153.95
							c40.161-40.221,157.692-157.929,110.642-277.086c-28.116-71.205-113.731-139.707-195.252-157.882
							c-119.573-26.66-206.904,60.177-352.129,209.662c-128.737,132.513-133.853,177.793-228.22,271.597
							C2415.795,2592.911,2304.364,2681.537,2127.742,2752.985z"/>
					</defs>
					
						<linearGradient id="SVGID_00000026128468053899092220000009104072970359941280_" gradientUnits="userSpaceOnUse" x1="2907.7168" y1="1964.124" x2="2615.011" y2="2749.8093">
						<stop  offset="0" style="stop-color:#FF9085"/>
						<stop  offset="0.6291" style="stop-color:#FC7BA7"/>
						<stop  offset="1" style="stop-color:#FB6FBB"/>
					</linearGradient>
					
						<use xlink:href="#SVGID_00000040542348558204340970000004044746345929450157_"  style="overflow:visible;fill:url(#SVGID_00000026128468053899092220000009104072970359941280_);"/>
					<clipPath id="SVGID_00000177455983668059090420000003257845021352504760_">
						<use xlink:href="#SVGID_00000040542348558204340970000004044746345929450157_"  style="overflow:visible;"/>
					</clipPath>
					<g style="opacity:0.5;clip-path:url(#SVGID_00000177455983668059090420000003257845021352504760_);">
						<path style="fill:#FFFFFF;" d="M2130.891,2751.667c-58.489,0-116.517-6.172-173.99-18.541
							c-151.013-32.5-292.611-104.752-420.859-214.746l4.577-5.335c127.349,109.225,267.904,180.961,417.757,213.212
							c199.62,42.961,406.342,10.513,614.42-96.441c216.751-111.412,380.675-275.739,480.023-393.974
							c68.744-81.813,113.875-187.322,134.143-313.597l6.938,1.113c-20.469,127.55-66.126,234.205-135.7,317.004
							c-99.764,118.729-264.401,283.757-482.192,395.703C2426.295,2713.019,2277.204,2751.667,2130.891,2751.667z"/>
						<path style="fill:#FFFFFF;" d="M2832.888,2461.799l-0.727-3.074c-0.151-0.643-15.155-65.426-11.106-151.329
							c3.743-79.382,24.961-193.641,104.797-287.178l5.345,4.563c-141.399,165.663-98.951,399.7-92.861,429.245
							c371.109-47.914,469.521-259.459,490.869-323.305c0.587-1.753,0.978-2.841,1.163-3.218l6.299,3.112l-3.15-1.556l3.177,1.498
							c-0.154,0.357-0.415,1.168-0.827,2.393c-21.735,65.013-122.027,280.837-499.848,328.455L2832.888,2461.799z"/>
						<path style="fill:#FFFFFF;" d="M2925.501,2755.126c-83.95,0-205.346-23.686-349.449-121.151l-1.554-1.052l0.01-1.878
							c0.01-2.002,2.597-202.624,126.605-417.351l124.975-216.406l6.087,3.513l-124.975,216.406
							c-116.672,202.023-125.061,391.295-125.627,412.017c88.829,59.801,225.301,128.327,373.641,117.844
							c89.22-6.282,141.145-38.68,141.656-39.005l3.774,5.927c-2.148,1.367-53.624,33.559-144.47,40.055
							C2946.602,2754.729,2936.357,2755.126,2925.501,2755.126z"/>
					</g>
				</g>
			</g>
		</g>
		<g>
			
				<linearGradient id="SVGID_00000062886409772717715930000000177382893757349543_" gradientUnits="userSpaceOnUse" x1="1793.4562" y1="1149.1993" x2="2209.5569" y2="1149.1993">
				<stop  offset="0" style="stop-color:#311944"/>
				<stop  offset="1" style="stop-color:#893976"/>
			</linearGradient>
			<path style="fill:url(#SVGID_00000062886409772717715930000000177382893757349543_);" d="M2096.448,1493.306
				c-36.641-2.346-71.243-25.561-86.129-61.314l-209.9-504.175c-19.111-45.908,2.448-97.866,48.395-116.291
				c46.27-18.552,118.4,3.299,138.003,49.694l215.335,509.644c20.3,48.051-2.592,100.593-50.875,117.125
				C2139.385,1492.059,2108.536,1494.079,2096.448,1493.306z"/>
			
				<linearGradient id="SVGID_00000055668446878236508600000007104556673688986814_" gradientUnits="userSpaceOnUse" x1="-3611.52" y1="953.5396" x2="-3895.2512" y2="1288.1571" gradientTransform="matrix(1 0 0 1 5719.2446 0)">
				<stop  offset="0" style="stop-color:#311944"/>
				<stop  offset="1" style="stop-color:#893976"/>
			</linearGradient>
			<path style="opacity:0.3;fill:url(#SVGID_00000055668446878236508600000007104556673688986814_);" d="M1848.813,811.526
				c46.27-18.552,118.4,3.299,138.003,49.694l196.89,465.989c-32.951-8.467-71.96-7.706-109.404-40.538
				c-62.334-54.658-31.669-124.704-81.075-187.097c-22.584-28.52-64.373-58.545-149.436-67.578l-43.372-104.178
				C1781.308,881.908,1802.867,829.951,1848.813,811.526z"/>
			
				<linearGradient id="SVGID_00000097495794073726765900000016741367194955400106_" gradientUnits="userSpaceOnUse" x1="3397.1035" y1="745.6102" x2="3168.0791" y2="1015.7097" gradientTransform="matrix(-1 0 0 1 5063.5015 0)">
				<stop  offset="0" style="stop-color:#311944"/>
				<stop  offset="1" style="stop-color:#893976"/>
			</linearGradient>
			<path style="fill:url(#SVGID_00000097495794073726765900000016741367194955400106_);" d="M1722.452,711.477
				c1.804,0,3.594,0.136,5.368,0.38l129.752-1.424v337.371l-125.292-1.716c-3.222,0.818-6.501,1.247-9.829,1.247
				c-44.47,0-80.52-75.184-80.52-167.929C1641.933,786.661,1677.983,711.477,1722.452,711.477z"/>
			
				<linearGradient id="SVGID_00000149374159131019487760000003381635986802894760_" gradientUnits="userSpaceOnUse" x1="-3445.5586" y1="369.1726" x2="-3183.7134" y2="1817.5" gradientTransform="matrix(1 0 0 1 5719.2446 0)">
				<stop  offset="0.0036" style="stop-color:#E38DDD"/>
				<stop  offset="1" style="stop-color:#9571F6"/>
			</linearGradient>
			<path style="fill:url(#SVGID_00000149374159131019487760000003381635986802894760_);" d="M1857.573,710.432
				c-49.148,112.34-49.148,224.279,0,337.371l965.169,310.313l9.967-946.895L1857.573,710.432z"/>
			
				<linearGradient id="SVGID_00000057128245014997183410000011477245966768657541_" gradientUnits="userSpaceOnUse" x1="-3535.1521" y1="371.8215" x2="-3270.0466" y2="1838.181" gradientTransform="matrix(1 0 0 1 5719.2446 0)">
				<stop  offset="0" style="stop-color:#AA80F9"/>
				<stop  offset="0.9964" style="stop-color:#6165D7"/>
			</linearGradient>
			<path style="opacity:0.3;fill:url(#SVGID_00000057128245014997183410000011477245966768657541_);" d="M2562.196,1079.785
				c-91.768-34.767-120.282-167.901-226.825-172.382c-83.599-3.516-108.784,77.655-190.696,68.9
				c-83.849-8.962-97.929-99.363-191.83-131.228c-42.694-14.487-87.358-11.81-130.709,0.437
				c-5.823,67.09,5.936,134.408,35.437,202.29l965.169,310.313l-57.098-321.501
				C2670.479,1092.128,2606.684,1096.64,2562.196,1079.785z"/>
			
				<linearGradient id="SVGID_00000179606390284058795780000015526824218238279299_" gradientUnits="userSpaceOnUse" x1="2454.7573" y1="573.3617" x2="1933.1643" y2="1188.501" gradientTransform="matrix(-1 0 0 1 5063.5015 0)">
				<stop  offset="0.0036" style="stop-color:#E38DDD"/>
				<stop  offset="1" style="stop-color:#9571F6"/>
			</linearGradient>
			
				<ellipse style="fill:url(#SVGID_00000179606390284058795780000015526824218238279299_);" cx="2869.541" cy="880.931" rx="234.778" ry="489.644"/>
			
				<linearGradient id="SVGID_00000109716485082124275870000018159198360061953443_" gradientUnits="userSpaceOnUse" x1="2491.2876" y1="873.3564" x2="1988.4642" y2="886.1667" gradientTransform="matrix(-1 0 0 1 5063.5015 0)">
				<stop  offset="0" style="stop-color:#311944"/>
				<stop  offset="1" style="stop-color:#893976"/>
			</linearGradient>
			<path style="fill:url(#SVGID_00000109716485082124275870000018159198360061953443_);" d="M2869.541,1353.962
				c27.528,0,54.577-11.548,80.396-34.324c26.278-23.18,50.043-56.71,70.637-99.659c43.29-90.285,67.132-210.695,67.132-339.048
				c0-128.353-23.842-248.762-67.132-339.048c-20.594-42.949-44.359-76.478-70.637-99.659
				c-25.819-22.776-52.869-34.324-80.396-34.324s-54.577,11.548-80.396,34.324c-26.278,23.18-50.043,56.71-70.637,99.659
				c-18.101,37.75-32.802,80.768-43.781,127.43c-15.279,64.936,28.883,132.725,28.883,207.41
				c0,79.416-43.107,159.998-25.893,228.078c10.607,41.952,24.285,80.754,40.791,115.177c20.594,42.949,44.36,76.479,70.637,99.659
				C2814.964,1342.414,2842.013,1353.962,2869.541,1353.962z"/>
			<g>
				<defs>
					<path id="SVGID_00000178204791261939455560000001622222416055155869_" d="M2869.541,1353.962
						c27.528,0,54.577-11.548,80.396-34.324c26.278-23.18,50.043-56.71,70.637-99.659c43.29-90.285,67.132-210.695,67.132-339.048
						c0-128.353-23.842-248.762-67.132-339.048c-20.594-42.949-44.359-76.478-70.637-99.659
						c-25.819-22.776-52.869-34.324-80.396-34.324s-54.577,11.548-80.396,34.324c-26.278,23.18-50.043,56.71-70.637,99.659
						c-43.29,90.285-67.132,210.695-67.132,339.048c0,128.353,23.842,248.763,67.132,339.048
						c20.594,42.949,44.36,76.479,70.637,99.659C2814.964,1342.414,2842.013,1353.962,2869.541,1353.962z"/>
				</defs>
				<clipPath id="SVGID_00000021102722945377379910000018288708170553223328_">
					<use xlink:href="#SVGID_00000178204791261939455560000001622222416055155869_"  style="overflow:visible;"/>
				</clipPath>
				
					<linearGradient id="SVGID_00000181785814103902989950000006244568119668785537_" gradientUnits="userSpaceOnUse" x1="2390.7153" y1="885.9667" x2="2803.7979" y2="885.9667">
					<stop  offset="0" style="stop-color:#311944"/>
					<stop  offset="1" style="stop-color:#893976"/>
				</linearGradient>
				
					<path style="clip-path:url(#SVGID_00000021102722945377379910000018288708170553223328_);fill:url(#SVGID_00000181785814103902989950000006244568119668785537_);" d="
					M2888.863,887.355c0,124.053-82.143,222.552-182.042,220.04c-98.354-2.473-176.976-102.217-176.976-222.817
					c0-120.601,78.622-219.127,176.976-220.079C2806.72,663.532,2888.863,763.302,2888.863,887.355z"/>
				<path style="opacity:0.38;clip-path:url(#SVGID_00000021102722945377379910000018288708170553223328_);fill:#FFFFFF;" d="
					M2869.539,885.257c-0.312,80.346-49.568,155.599-69.913,150.851c-15.415-3.598-15.354-53.482-15.232-153.251
					c0.12-97.915,0.181-146.872,15.232-150.382C2820.02,727.719,2869.856,803.958,2869.539,885.257z"/>
			</g>
		</g>
		<g>
			
				<linearGradient id="SVGID_00000181079230433322509800000001446024934152443067_" gradientUnits="userSpaceOnUse" x1="1772.3949" y1="2990.5793" x2="1591.6743" y2="3066.4819">
				<stop  offset="0" style="stop-color:#40447E"/>
				<stop  offset="0.9964" style="stop-color:#3C3B6B"/>
			</linearGradient>
			<path style="fill:url(#SVGID_00000181079230433322509800000001446024934152443067_);" d="M3258.347,2891.689l-2572.615-22.406
				v66.295c0,17.994,11.221,33.294,26.417,36.021l727.459,130.546c8.633,1.549,17.388,1.96,26.1,1.225l1764.683-148.844
				c15.755-1.328,27.957-16.677,27.957-35.163V2891.689z"/>
			<g>
				
					<linearGradient id="SVGID_00000040568533177664933540000005905766534494538387_" gradientUnits="userSpaceOnUse" x1="1531.0779" y1="2194.0825" x2="1334.9493" y2="2276.4565">
					<stop  offset="0" style="stop-color:#40447E"/>
					<stop  offset="0.9964" style="stop-color:#3C3B6B"/>
				</linearGradient>
				<path style="fill:url(#SVGID_00000040568533177664933540000005905766534494538387_);" d="M2430.189,2784.222L714.046,2905.5
					c-30.709,2.17-55.678-20.89-55.678-51.512V1627.15c0-30.622,24.969-55.446,55.678-55.446h1716.143
					c25.3,0,45.756,22.44,45.756,50.123v1109.04C2475.945,2758.547,2455.49,2782.434,2430.189,2784.222z"/>
				
					<linearGradient id="SVGID_00000104688511037449778850000002792732846557683087_" gradientUnits="userSpaceOnUse" x1="685.7318" y1="2238.6721" x2="2503.3088" y2="2238.6721">
					<stop  offset="0" style="stop-color:#40447E"/>
					<stop  offset="0.9964" style="stop-color:#3C3B6B"/>
				</linearGradient>
				<path style="fill:url(#SVGID_00000104688511037449778850000002792732846557683087_);" d="M2457.553,2784.222L741.411,2905.5
					c-30.71,2.17-55.679-20.89-55.679-51.512V1627.15c0-30.622,24.968-55.446,55.679-55.446h1716.142
					c25.301,0,45.756,22.44,45.756,50.123v1109.04C2503.309,2758.547,2482.854,2782.434,2457.553,2784.222z"/>
				
					<linearGradient id="SVGID_00000120560748004666258180000016260088016021269408_" gradientUnits="userSpaceOnUse" x1="1833.9386" y1="1798.1316" x2="440.9406" y2="4075.3818">
					<stop  offset="0.0036" style="stop-color:#E38DDD"/>
					<stop  offset="1" style="stop-color:#9571F6"/>
				</linearGradient>
				<path style="fill:url(#SVGID_00000120560748004666258180000016260088016021269408_);" d="M2404.09,2706.032L805.682,2811.379
					c-24.991,1.647-45.299-17.28-45.299-42.279V1695.001c0-24.999,20.308-45.349,45.299-45.453l1598.408-6.615
					c20.871-0.087,37.753,18.302,37.753,41.071v978.313C2441.843,2685.086,2424.961,2704.657,2404.09,2706.032z"/>
				<path style="fill:#FFFFFF;" d="M1660.091,1605.26c0,11.4-8.833,20.667-19.741,20.7c-10.921,0.033-19.784-9.202-19.784-20.627
					c0-11.426,8.863-20.693,19.784-20.701C1651.258,1584.625,1660.091,1593.86,1660.091,1605.26z"/>
				<path style="opacity:0.48;fill:#FFFFFF;" d="M2044.075,2447.742c-132.299-71.184-236.325,19.014-336.718-69.98
					c-60.865-53.954-30.983-94.188-105.875-174.816c-82.949-89.302-136.954-59.283-220.317-139.656
					c-105.407-101.626-52.688-180.693-143.483-253.657c-110.147-88.516-228.934-6.589-333.786-91.479
					c-45.224-36.613-70.037-89.842-82.994-146.452H718.309c-17.978,0-32.577,14.571-32.577,32.545v1271.725
					c0,17.974,14.599,31.509,32.577,30.233l1749.031-124.15c8.583-0.609,16.195-5.621,21.079-12.886
					c-128.034-4.667-206.692-47.587-256.972-91.958C2133.085,2590.411,2150.146,2504.812,2044.075,2447.742z"/>
			</g>
			
				<linearGradient id="SVGID_00000028290208150587054420000001023792858452525473_" gradientUnits="userSpaceOnUse" x1="685.7318" y1="2910.8052" x2="3258.3469" y2="2910.8052">
				<stop  offset="0" style="stop-color:#40447E"/>
				<stop  offset="0.9964" style="stop-color:#3C3B6B"/>
			</linearGradient>
			<path style="fill:url(#SVGID_00000028290208150587054420000001023792858452525473_);" d="M2414.732,2778.721l-1729,127.657
				l753.876,135.287c8.633,1.549,17.388,1.96,26.1,1.225l1792.639-151.202l-816.111-112.1
				C2433.109,2778.335,2423.903,2778.045,2414.732,2778.721z"/>
			
				<linearGradient id="SVGID_00000127729820525678894810000010528777148671055029_" gradientUnits="userSpaceOnUse" x1="938.02" y1="2889.7266" x2="2822.959" y2="2889.7266">
				<stop  offset="0" style="stop-color:#40447E"/>
				<stop  offset="0.9964" style="stop-color:#3C3B6B"/>
			</linearGradient>
			<polygon style="opacity:0.3;fill:url(#SVGID_00000127729820525678894810000010528777148671055029_);" points="938.02,2909.589 
				2377.464,2801.727 2822.959,2862.426 1395.915,2977.726 			"/>
		</g>
		<g>
			<g>
				
					<linearGradient id="SVGID_00000016770612155654928140000006621432082290459794_" gradientUnits="userSpaceOnUse" x1="1794.6537" y1="1230.975" x2="1226.6379" y2="3197.1858">
					<stop  offset="0" style="stop-color:#AB316D"/>
					<stop  offset="1" style="stop-color:#792D3D"/>
				</linearGradient>
				<path style="fill:url(#SVGID_00000016770612155654928140000006621432082290459794_);" d="M2295.896,1835.563
					c0,364.096-277.928,678.359-639.887,703.241c-384.958,26.463-715.457-280.834-715.457-687.929s330.498-721.859,715.457-704.095
					C2017.967,1163.484,2295.896,1471.467,2295.896,1835.563z"/>
				
					<linearGradient id="SVGID_00000103960065572237894640000015825183324364368816_" gradientUnits="userSpaceOnUse" x1="1831.1758" y1="1230.975" x2="1263.16" y2="3197.1858">
					<stop  offset="0" style="stop-color:#FFC444"/>
					<stop  offset="0.9964" style="stop-color:#F36F56"/>
				</linearGradient>
				<path style="fill:url(#SVGID_00000103960065572237894640000015825183324364368816_);" d="M2332.418,1835.563
					c0,364.096-277.928,678.359-639.886,703.241c-384.958,26.463-715.457-280.834-715.457-687.929s330.498-721.859,715.457-704.095
					C2054.49,1163.484,2332.418,1471.467,2332.418,1835.563z"/>
				<g style="opacity:0.3;">
					
						<linearGradient id="SVGID_00000084491422099431871230000015692869445812520367_" gradientUnits="userSpaceOnUse" x1="1770.8048" y1="1182.7628" x2="1190.2102" y2="3192.5156">
						<stop  offset="0" style="stop-color:#FFC444"/>
						<stop  offset="0.9964" style="stop-color:#F36F56"/>
					</linearGradient>
					<path style="fill:url(#SVGID_00000084491422099431871230000015692869445812520367_);" d="M1819.896,2305.362
						c-130.729-148.574-7.196-339.201-144.167-524.29c-127.1-171.753-305.995-110.963-443.802-292.019
						c-29.378-38.597-50.794-80.236-66.07-123.046c-116.771,126.363-188.782,296.785-188.782,484.869
						c0,407.095,330.499,714.392,715.457,687.929c133.273-9.161,254.815-57.318,354.978-131.86
						C1935.377,2396.667,1864.862,2356.466,1819.896,2305.362z"/>
				</g>
				
					<linearGradient id="SVGID_00000103979899890166777980000007809285147750120842_" gradientUnits="userSpaceOnUse" x1="1820.7189" y1="1292.2952" x2="1309.6748" y2="3061.2961">
					<stop  offset="0" style="stop-color:#FFFFFF"/>
					<stop  offset="0.9964" style="stop-color:#EBEFF2"/>
				</linearGradient>
				<path style="fill:url(#SVGID_00000103979899890166777980000007809285147750120842_);" d="M2271.487,1836.251
					c0,329.426-252.217,612.367-578.956,632.952c-345.365,21.757-640.131-254.944-640.131-619.179s294.766-647.596,640.131-633.643
					C2019.27,1229.583,2271.487,1506.825,2271.487,1836.251z"/>
				<path style="fill:#EFF2F6;" d="M1692.531,2469.203c95.792-6.035,184.983-34.494,263.093-79.635
					c-61.151-18.642-104.593-48.819-135.729-84.206c-130.729-148.574-7.196-339.201-144.167-524.29
					c-127.1-171.753-305.995-110.963-443.802-292.019c-12.14-15.95-22.902-32.429-32.456-49.296
					c-91.601,110.664-147.07,253.759-147.07,410.267C1052.4,2214.259,1347.166,2490.96,1692.531,2469.203z"/>
				
					<linearGradient id="SVGID_00000170254154251903907170000007187749892868513670_" gradientUnits="userSpaceOnUse" x1="1797.5333" y1="1414.7985" x2="1400.2771" y2="2789.9177">
					<stop  offset="0" style="stop-color:#FFC444"/>
					<stop  offset="0.9964" style="stop-color:#F36F56"/>
				</linearGradient>
				<path style="fill:url(#SVGID_00000170254154251903907170000007187749892868513670_);" d="M2147.663,1837.65
					c0,258.97-199.47,479.181-455.132,492.35c-266.927,13.749-492.102-201.642-492.102-481.649s225.176-500.486,492.102-492.768
					C1948.193,1362.976,2147.663,1578.68,2147.663,1837.65z"/>
				
					<linearGradient id="SVGID_00000173868777198208622320000002354755365446166459_" gradientUnits="userSpaceOnUse" x1="1615.313" y1="1677.0195" x2="1346.7402" y2="2606.6953">
					<stop  offset="0" style="stop-color:#FFC444"/>
					<stop  offset="0.9964" style="stop-color:#F36F56"/>
				</linearGradient>
				<path style="opacity:0.3;fill:url(#SVGID_00000173868777198208622320000002354755365446166459_);" d="M1675.729,1781.072
					c-108.427-146.519-254.395-123.851-380.612-226.343c-59.436,82.114-94.688,183.683-94.688,293.623
					c0,280.007,225.176,495.398,492.102,481.649c44.456-2.29,87.162-10.814,127.365-24.638h0
					C1689.167,2156.788,1812.699,1966.161,1675.729,1781.072z"/>
				
					<linearGradient id="SVGID_00000036971277610402709890000015979103703667178161_" gradientUnits="userSpaceOnUse" x1="1771.3212" y1="1537.1619" x2="1487.6857" y2="2518.9778">
					<stop  offset="0" style="stop-color:#FFFFFF"/>
					<stop  offset="0.9964" style="stop-color:#EBEFF2"/>
				</linearGradient>
				<path style="fill:url(#SVGID_00000036971277610402709890000015979103703667178161_);" d="M2021.152,1839.079
					c0,186.985-144.897,344.366-328.621,351.719c-189.469,7.583-347.469-146.37-347.469-344.081s158-355.233,347.469-351.931
					C1876.255,1497.987,2021.152,1652.094,2021.152,1839.079z"/>
				<path style="fill:#EFF2F6;" d="M1421.904,1624.858c-47.989,60.619-76.842,137.829-76.842,221.859
					c0,197.711,158,351.663,347.469,344.081c23.403-0.937,46.162-4.304,68.057-9.836c-24.251-124.049,16.516-262.901-84.859-399.891
					C1602.342,1681.902,1511.88,1660.237,1421.904,1624.858z"/>
				
					<linearGradient id="SVGID_00000003105023446557807950000002929452011545482906_" gradientUnits="userSpaceOnUse" x1="1742.0813" y1="1659.4358" x2="1571.9475" y2="2248.3613">
					<stop  offset="0" style="stop-color:#FFC444"/>
					<stop  offset="0.9964" style="stop-color:#F36F56"/>
				</linearGradient>
				<path style="fill:url(#SVGID_00000003105023446557807950000002929452011545482906_);" d="M1891.866,1840.54
					c0,113.422-88.429,207.891-199.335,211.055c-112.975,3.223-206.117-89.194-206.117-206.475
					c0-117.281,93.142-211.803,206.117-211.132C1803.438,1634.647,1891.866,1727.118,1891.866,1840.54z"/>
				
					<linearGradient id="SVGID_00000013180600318525045890000008468716859191044742_" gradientUnits="userSpaceOnUse" x1="1675.3701" y1="1730.0695" x2="1541.9806" y2="2191.803">
					<stop  offset="0" style="stop-color:#FFC444"/>
					<stop  offset="0.9964" style="stop-color:#F36F56"/>
				</linearGradient>
				<path style="opacity:0.3;fill:url(#SVGID_00000013180600318525045890000008468716859191044742_);" d="M1750.034,2041.372
					c-2.709-84.602-9.399-172.592-74.305-260.3c-34.955-47.235-73.758-76.868-114.528-98.78
					c-45.598,38.774-74.787,97.354-74.787,162.829c0,117.281,93.142,209.698,206.117,206.475
					C1712.575,2051.024,1731.868,2047.46,1750.034,2041.372z"/>
			</g>
			<g>
				
					<linearGradient id="SVGID_00000148630071933295107140000013055146351998658213_" gradientUnits="userSpaceOnUse" x1="2102.3508" y1="2378.9609" x2="2297.269" y2="2378.9609" gradientTransform="matrix(0.9121 -0.4099 0.4099 0.9121 -676.7306 258.9677)">
					<stop  offset="0" style="stop-color:#FFC444"/>
					<stop  offset="0.9964" style="stop-color:#F36F56"/>
				</linearGradient>
				<path style="fill:url(#SVGID_00000148630071933295107140000013055146351998658213_);" d="M2327.048,1550.87
					c0.491-0.448-102.468,35.376-102.468,35.376l31.428-63.562c10.563-21.363,106.224-48.433,129.868-53.024l2.506,6.165
					L2327.048,1550.87z"/>
				
					<linearGradient id="SVGID_00000147206195832551865340000018383356834279788207_" gradientUnits="userSpaceOnUse" x1="1443.2477" y1="2375.252" x2="1643.6918" y2="2375.252" gradientTransform="matrix(0.9263 -0.3766 0.3766 0.9263 -526.4971 180.766)">
					<stop  offset="0" style="stop-color:#444B8C"/>
					<stop  offset="0.9964" style="stop-color:#26264F"/>
				</linearGradient>
				<path style="fill:url(#SVGID_00000147206195832551865340000018383356834279788207_);" d="M1893.871,1776.118l-182.586,66.732
					c-4.768,1.743-7.707-5.137-3.15-7.376l174.843-85.945c1.147-0.564,2.532-0.037,3.014,1.148l9.163,22.541
					C1895.626,1774.374,1895.043,1775.69,1893.871,1776.118z"/>
				
					<linearGradient id="SVGID_00000039816751197013220070000016326465265970878117_" gradientUnits="userSpaceOnUse" x1="2100.0596" y1="2489.0054" x2="2292.0386" y2="2489.0054" gradientTransform="matrix(0.9121 -0.4099 0.4099 0.9121 -676.7306 258.9677)">
					<stop  offset="0" style="stop-color:#FFC444"/>
					<stop  offset="0.9964" style="stop-color:#F36F56"/>
				</linearGradient>
				<path style="fill:url(#SVGID_00000039816751197013220070000016326465265970878117_);" d="M2348.479,1595.699
					c0.657-0.041-100.081,49.135-100.081,49.135l66.17,21.895c22.239,7.358,108.36-43.179,128.191-57.149l-2.506-6.165
					L2348.479,1595.699z"/>
				
					<linearGradient id="SVGID_00000039098436128977516600000002592446268073294999_" gradientUnits="userSpaceOnUse" x1="2087.9958" y1="2494.1892" x2="2291.7974" y2="2494.1892" gradientTransform="matrix(0.9121 -0.4099 0.4099 0.9121 -676.7306 258.9677)">
					<stop  offset="0" style="stop-color:#AB316D"/>
					<stop  offset="1" style="stop-color:#792D3D"/>
				</linearGradient>
				<path style="fill:url(#SVGID_00000039098436128977516600000002592446268073294999_);" d="M2336.899,1600.579
					c0.654-0.04-99.627,48.928-99.627,48.928l65.913,21.891c22.152,7.357,46.419,3.805,65.636-9.733l73.937-52.086
					L2336.899,1600.579z"/>
				
					<linearGradient id="SVGID_00000000209869544644912440000013100533887038216582_" gradientUnits="userSpaceOnUse" x1="2090.2817" y1="2372.5503" x2="2297.269" y2="2372.5503" gradientTransform="matrix(0.9121 -0.4099 0.4099 0.9121 -676.7306 258.9677)">
					<stop  offset="0" style="stop-color:#AB316D"/>
					<stop  offset="1" style="stop-color:#792D3D"/>
				</linearGradient>
				<path style="fill:url(#SVGID_00000000209869544644912440000013100533887038216582_);" d="M2317.565,1553.019
					c0.489-0.447-104.057,38.031-104.057,38.031l31.25-63.373c10.502-21.298,30.053-36.453,52.965-40.901l88.154-17.115
					L2317.565,1553.019z"/>
				
					<linearGradient id="SVGID_00000166666627935243374530000013454645084329926584_" gradientUnits="userSpaceOnUse" x1="1762.3958" y1="2360.7712" x2="1766.2902" y2="2538.6094" gradientTransform="matrix(0.9121 -0.4099 0.4099 0.9121 -676.7306 258.9677)">
					<stop  offset="0" style="stop-color:#AB316D"/>
					<stop  offset="1" style="stop-color:#792D3D"/>
				</linearGradient>
				<path style="fill:url(#SVGID_00000166666627935243374530000013454645084329926584_);" d="M1990.687,1769.918l-59.791,24.905
					c-21.009,8.751-45.566-3.063-55.019-26.315l0,0c-9.453-23.253-0.347-49.446,20.508-58.576l59.352-25.987L1990.687,1769.918z"/>
				<g style="opacity:0.3;">
					
						<linearGradient id="SVGID_00000114062823295755716640000001413377902493915065_" gradientUnits="userSpaceOnUse" x1="1760.4922" y1="2360.811" x2="1764.3867" y2="2538.6521" gradientTransform="matrix(0.9121 -0.4099 0.4099 0.9121 -676.7306 258.9677)">
						<stop  offset="0" style="stop-color:#AB316D"/>
						<stop  offset="1" style="stop-color:#792D3D"/>
					</linearGradient>
					<path style="fill:url(#SVGID_00000114062823295755716640000001413377902493915065_);" d="M1934.877,1758.802
						c-23.108,1.228-44.258-4.953-62.498-13.906c-0.744,7.7,0.33,15.82,3.498,23.612l0,0c9.453,23.253,34.01,35.067,55.019,26.315
						l59.792-24.906l-10.267-25.255C1966.981,1752.617,1952.974,1757.841,1934.877,1758.802z"/>
				</g>
				
					<linearGradient id="SVGID_00000120524116208496119920000017722733428967838394_" gradientUnits="userSpaceOnUse" x1="1947.9955" y1="1658.5261" x2="2357.5581" y2="1658.5261">
					<stop  offset="0" style="stop-color:#AA80F9"/>
					<stop  offset="0.9964" style="stop-color:#6165D7"/>
				</linearGradient>
				<path style="fill:url(#SVGID_00000120524116208496119920000017722733428967838394_);" d="M2357.558,1590.77l-366.871,179.147
					c-23.407,9.516-58.358-76.456-34.95-85.972l383.784-137.545L2357.558,1590.77z"/>
				<g style="opacity:0.3;">
					
						<linearGradient id="SVGID_00000095339517208956426460000011373380068959624339_" gradientUnits="userSpaceOnUse" x1="1964.9651" y1="1672.0862" x2="2357.5581" y2="1672.0862">
						<stop  offset="0" style="stop-color:#AA80F9"/>
						<stop  offset="0.9964" style="stop-color:#6165D7"/>
					</linearGradient>
					<path style="fill:url(#SVGID_00000095339517208956426460000011373380068959624339_);" d="M2238.802,1630.764
						c-75.35,27.417-93.57,13.394-157.615,46.162c-59.017,30.195-82.397,61.975-116.221,75.414
						c8.004,12.604,17.563,20.895,25.722,17.578l366.871-179.148l-7.012-17.248
						C2307.899,1602.206,2269.436,1619.617,2238.802,1630.764z"/>
				</g>
				
					<linearGradient id="SVGID_00000101096181543381524520000008944531879212019877_" gradientUnits="userSpaceOnUse" x1="2336.9929" y1="1568.7489" x2="2360.2432" y2="1568.7489">
					<stop  offset="0" style="stop-color:#AA80F9"/>
					<stop  offset="0.9964" style="stop-color:#6165D7"/>
				</linearGradient>
				<path style="fill:url(#SVGID_00000101096181543381524520000008944531879212019877_);" d="M2355.867,1565.655
					c5.026,12.363,5.841,23.759,1.827,25.451c-4.008,1.69-11.315-6.936-16.326-19.264c-5.012-12.327-5.842-23.717-1.848-25.442
					C2343.52,1544.673,2350.842,1553.293,2355.867,1565.655z"/>
			</g>
		</g>
		<g>
			<g>
				
					<linearGradient id="SVGID_00000070826919264892769620000010441116395341543561_" gradientUnits="userSpaceOnUse" x1="471.3211" y1="2730.5496" x2="1196.7458" y2="2730.5496">
					<stop  offset="0" style="stop-color:#444B8C"/>
					<stop  offset="0.9964" style="stop-color:#26264F"/>
				</linearGradient>
				<path style="fill:url(#SVGID_00000070826919264892769620000010441116395341543561_);" d="M1196.746,3133.922
					c0,19.018-14.025,35.546-31.31,36.846l-658.992,49.583c-19.342,1.456-35.123-13.791-35.123-33.989v-909.216
					c0-20.199,15.781-36.571,35.123-36.495l658.992,2.586c17.285,0.068,31.31,15.596,31.31,34.614V3133.922z"/>
				
					<linearGradient id="SVGID_00000000198199434505055640000009409496385337430432_" gradientUnits="userSpaceOnUse" x1="831.2267" y1="4805.8833" x2="1218.0178" y2="4333.1387" gradientTransform="matrix(0 -1 1 0 -3755.802 3738.6064)">
					<stop  offset="0" style="stop-color:#444B8C"/>
					<stop  offset="0.9964" style="stop-color:#26264F"/>
				</linearGradient>
				<path style="fill:url(#SVGID_00000000198199434505055640000009409496385337430432_);" d="M487.696,2277.162v908.016
					c0,10.8,8.401,18.934,18.749,18.169l519.94-38.406l139.051-10.271c9.26-0.684,16.755-9.501,16.755-19.696v-857.136
					c0-10.194-7.496-18.477-16.755-18.501l-144.059-0.367l-514.932-1.313C496.097,2257.63,487.696,2266.363,487.696,2277.162z"/>
				
					<linearGradient id="SVGID_00000142884047759247177330000003332619297733574326_" gradientUnits="userSpaceOnUse" x1="681.7319" y1="2277.1736" x2="1204.4481" y2="3747.616">
					<stop  offset="0" style="stop-color:#FFC444"/>
					<stop  offset="0.9964" style="stop-color:#F36F56"/>
				</linearGradient>
				<path style="fill:url(#SVGID_00000142884047759247177330000003332619297733574326_);" d="M1172.95,3095.526
					c0,3.792-3.159,7.095-7.041,7.365l-659.991,45.837c-4.336,0.301-7.866-2.716-7.866-6.726v-865.183
					c0-4.01,3.531-7.267,7.866-7.26l659.991,1.048c3.883,0.006,7.041,3.096,7.041,6.888V3095.526z"/>
				
					<linearGradient id="SVGID_00000100356894883332879760000018317260820989799305_" gradientUnits="userSpaceOnUse" x1="764.5976" y1="3150.9199" x2="924.2498" y2="3150.9199">
					<stop  offset="0" style="stop-color:#444B8C"/>
					<stop  offset="0.9964" style="stop-color:#26264F"/>
				</linearGradient>
				<path style="fill:url(#SVGID_00000100356894883332879760000018317260820989799305_);" d="M917.461,3157.135l-145.899,10.584
					c-3.845,0.279-6.964-2.522-6.964-6.257v-9.786c0-3.735,3.119-6.982,6.964-7.254l145.899-10.303
					c3.75-0.265,6.789,2.508,6.789,6.193v9.657C924.25,3153.655,921.211,3156.863,917.461,3157.135z"/>
			</g>
			<g>
				
					<linearGradient id="SVGID_00000137116978711102258740000002821142151830742428_" gradientUnits="userSpaceOnUse" x1="458.8732" y1="2730.8843" x2="1184.259" y2="2730.8843">
					<stop  offset="0.0036" style="stop-color:#26264F"/>
					<stop  offset="1" style="stop-color:#444B8C"/>
				</linearGradient>
				<path style="fill:url(#SVGID_00000137116978711102258740000002821142151830742428_);" d="M1184.259,3134.246
					c0,19.018-14.024,35.545-31.308,36.845l-658.956,49.582c-19.341,1.455-35.122-13.79-35.122-33.988v-909.192
					c0-20.199,15.781-36.569,35.122-36.493l658.956,2.586c17.284,0.068,31.308,15.595,31.308,34.613V3134.246z"/>
				
					<linearGradient id="SVGID_00000080926165046346440690000000362784089707057809_" gradientUnits="userSpaceOnUse" x1="471.3211" y1="2730.5496" x2="1196.7458" y2="2730.5496">
					<stop  offset="0" style="stop-color:#444B8C"/>
					<stop  offset="0.9964" style="stop-color:#26264F"/>
				</linearGradient>
				<path style="fill:url(#SVGID_00000080926165046346440690000000362784089707057809_);" d="M1196.746,3133.922
					c0,19.018-14.025,35.546-31.31,36.846l-658.992,49.583c-19.342,1.456-35.123-13.791-35.123-33.989v-909.216
					c0-20.199,15.781-36.571,35.123-36.495l658.992,2.586c17.285,0.068,31.31,15.596,31.31,34.614V3133.922z"/>
				
					<linearGradient id="SVGID_00000172416116949927343250000006029897494983303827_" gradientUnits="userSpaceOnUse" x1="831.2267" y1="4805.8833" x2="1218.0178" y2="4333.1387" gradientTransform="matrix(0 -1 1 0 -3755.802 3738.6064)">
					<stop  offset="0" style="stop-color:#444B8C"/>
					<stop  offset="0.9964" style="stop-color:#26264F"/>
				</linearGradient>
				<path style="fill:url(#SVGID_00000172416116949927343250000006029897494983303827_);" d="M487.696,2277.162v908.016
					c0,10.8,8.401,18.934,18.749,18.169l519.94-38.406l139.051-10.271c9.26-0.684,16.755-9.501,16.755-19.696v-857.136
					c0-10.194-7.496-18.477-16.755-18.501l-144.059-0.367l-514.932-1.313C496.097,2257.63,487.696,2266.363,487.696,2277.162z"/>
				
					<linearGradient id="SVGID_00000111893205630264769880000012729910116047827885_" gradientUnits="userSpaceOnUse" x1="681.7319" y1="2277.1736" x2="1204.4481" y2="3747.616">
					<stop  offset="0" style="stop-color:#FFC444"/>
					<stop  offset="0.9964" style="stop-color:#F36F56"/>
				</linearGradient>
				<path style="fill:url(#SVGID_00000111893205630264769880000012729910116047827885_);" d="M1172.95,3095.526
					c0,3.792-3.159,7.095-7.041,7.365l-659.991,45.837c-4.336,0.301-7.866-2.716-7.866-6.726v-865.183
					c0-4.01,3.531-7.267,7.866-7.26l659.991,1.048c3.883,0.006,7.041,3.096,7.041,6.888V3095.526z"/>
				
					<linearGradient id="SVGID_00000140725339304326507840000002488419024763655596_" gradientUnits="userSpaceOnUse" x1="764.5976" y1="3150.9199" x2="924.2498" y2="3150.9199">
					<stop  offset="0" style="stop-color:#444B8C"/>
					<stop  offset="0.9964" style="stop-color:#26264F"/>
				</linearGradient>
				<path style="fill:url(#SVGID_00000140725339304326507840000002488419024763655596_);" d="M917.461,3157.135l-145.899,10.584
					c-3.845,0.279-6.964-2.522-6.964-6.257v-9.786c0-3.735,3.119-6.982,6.964-7.254l145.899-10.303
					c3.75-0.265,6.789,2.508,6.789,6.193v9.657C924.25,3153.655,921.211,3156.863,917.461,3157.135z"/>
			</g>
			<g>
				<polygon style="opacity:0.78;fill:#FFFFFF;" points="815.921,2640.17 553.981,2649.369 553.981,2327.772 815.921,2327.772 				
					"/>
				<polygon style="opacity:0.78;fill:#FFFFFF;" points="815.921,3074.051 553.981,3096.026 553.981,2935.228 815.921,2917.852 				
					"/>
				<polygon style="opacity:0.78;fill:#FFFFFF;" points="1123.001,2413.021 879.081,2415.442 879.081,2327.772 1123.001,2327.772 
									"/>
				<polygon style="opacity:0.78;fill:#FFFFFF;" points="1123.001,2625.276 879.081,2633.726 879.081,2482.862 1123.001,2478.579 
									"/>
				<polygon style="opacity:0.78;fill:#FFFFFF;" points="1123.001,3048.289 879.081,3068.752 879.081,2700.146 1123.001,2689.862 
									"/>
				<polygon style="opacity:0.78;fill:#FFFFFF;" points="606.887,2867.134 553.981,2870.268 553.981,2731.88 606.887,2729.545 				
					"/>
				<polygon style="opacity:0.78;fill:#FFFFFF;" points="677.648,2862.942 625.563,2866.028 625.563,2710.834 677.648,2708.638 				
					"/>
				<polygon style="opacity:0.78;fill:#FFFFFF;" points="747.318,2858.815 696.036,2861.853 696.036,2767.857 747.318,2765.353 				
					"/>
				<polygon style="opacity:0.78;fill:#FFFFFF;" points="815.921,2854.751 765.423,2857.742 765.423,2704.938 815.921,2702.808 				
					"/>
			</g>
		</g>
		<g>
			
				<linearGradient id="SVGID_00000002361927874398776670000010802339655378540966_" gradientUnits="userSpaceOnUse" x1="-811.1147" y1="3463.646" x2="-874.6538" y2="3254.1384" gradientTransform="matrix(-0.993 0.1177 0.1177 0.993 1497.196 -89.6996)">
				<stop  offset="0" style="stop-color:#444B8C"/>
				<stop  offset="0.9964" style="stop-color:#26264F"/>
			</linearGradient>
			<path style="fill:url(#SVGID_00000002361927874398776670000010802339655378540966_);" d="M2759.841,3146.118
				c7.846,12.516,6.624,18.375,5.274,21.037c-3.955,7.81-16.04,2.089-45.338,8.703c-3.437,0.777-9.982,2.367-18.473,1.282
				c-7.273-0.932-16.037-3.835-15.879-5.774c0.058-0.706,1.291-1.115,1.758-1.266c8.049-2.616,57.929-23.818,57.929-23.818
				L2759.841,3146.118z"/>
			
				<linearGradient id="SVGID_00000129170379198928404010000006486473848055480222_" gradientUnits="userSpaceOnUse" x1="-865.8906" y1="3422.8513" x2="-865.8906" y2="3086.2563" gradientTransform="matrix(-0.993 0.1177 0.1177 0.993 1497.196 -89.6996)">
				<stop  offset="0" style="stop-color:#FFC444"/>
				<stop  offset="0.9964" style="stop-color:#F36F56"/>
			</linearGradient>
			<path style="fill:url(#SVGID_00000129170379198928404010000006486473848055480222_);" d="M2760.765,3116.705l-1.519,29.971
				c0,0-11.731,10.278-16.196-0.243c-3.212-7.569-5.348-28.65-5.348-28.65L2760.765,3116.705z"/>
			
				<linearGradient id="SVGID_00000076600337606838796540000012628191724815503537_" gradientUnits="userSpaceOnUse" x1="-741.9572" y1="3422.8508" x2="-741.9572" y2="3086.2515" gradientTransform="matrix(-0.993 0.1177 0.1177 0.993 1497.196 -89.6996)">
				<stop  offset="0" style="stop-color:#FFC444"/>
				<stop  offset="0.9964" style="stop-color:#F36F56"/>
			</linearGradient>
			<polygon style="fill:url(#SVGID_00000076600337606838796540000012628191724815503537_);" points="2612.724,3146.939 
				2628.708,3179.594 2646.479,3174.826 2639.002,3143.823 			"/>
			
				<linearGradient id="SVGID_00000025402610247812125650000004805936579241691312_" gradientUnits="userSpaceOnUse" x1="-718.553" y1="3435.5747" x2="-782.0929" y2="3226.0645" gradientTransform="matrix(-0.993 0.1177 0.1177 0.993 1497.196 -89.6996)">
				<stop  offset="0" style="stop-color:#444B8C"/>
				<stop  offset="0.9964" style="stop-color:#26264F"/>
			</linearGradient>
			<path style="fill:url(#SVGID_00000025402610247812125650000004805936579241691312_);" d="M2636.29,3197.706
				c7.663-11.293,15.571-11.168,16.401-18.465c0.653-5.734-3.498-12.249-8.949-14.319c-7.662-2.907-15.877,3.744-17.734,5.245
				c-12.609,10.209-7.487,23.578-19.62,30.875c-2.442,1.469-6.377,3.168-10.246,7.634c-1.642,1.898-5.712,6.596-4.351,9.396
				c1.574,3.24,9.604,2.281,17.24,1.372c9.162-1.091,13.743-1.634,17.868-4.85
				C2632.616,3210.138,2630.376,3206.422,2636.29,3197.706z"/>
			
				<linearGradient id="SVGID_00000111873934346510002190000007813395827298833305_" gradientUnits="userSpaceOnUse" x1="-894.9941" y1="2696.5498" x2="-925.9056" y2="3392.0598" gradientTransform="matrix(-0.993 0.1177 0.1177 0.993 1497.196 -89.6996)">
				<stop  offset="0" style="stop-color:#AA80F9"/>
				<stop  offset="0.9964" style="stop-color:#6165D7"/>
			</linearGradient>
			<path style="fill:url(#SVGID_00000111873934346510002190000007813395827298833305_);" d="M2783.728,2401.216
				c3.827,68.943,0.126,128.524-6.056,177.426c-6.651,52.605-12.281,62.067-12.729,98.099
				c-0.973,78.408,25.021,87.466,36.912,175.014c13.132,96.67-6.289,175.978-13.998,206.255
				c-6.74,26.469-14.305,48.02-20.094,63.032c-8.259,8.499-22.116,6.647-36.708,4.919c-12.587-87.627-26.047-169.958-38.635-257.584
				c-28.031-131.068-56.061-262.131-84.091-393.198C2666.796,2450.523,2725.262,2425.873,2783.728,2401.216z"/>
			
				<linearGradient id="SVGID_00000027565095689285413420000007578753782610400412_" gradientUnits="userSpaceOnUse" x1="-894.9941" y1="2696.5498" x2="-925.9056" y2="3392.0596" gradientTransform="matrix(-0.993 0.1177 0.1177 0.993 1497.196 -89.6996)">
				<stop  offset="0" style="stop-color:#311944"/>
				<stop  offset="1" style="stop-color:#893976"/>
			</linearGradient>
			<path style="opacity:0.3;fill:url(#SVGID_00000027565095689285413420000007578753782610400412_);" d="M2731.055,3125.961
				c-12.587-87.627-26.047-169.958-38.635-257.584c-28.031-131.068-56.061-262.131-84.091-393.198
				c58.466-24.656,116.932-49.307,175.399-73.963c0.253,4.566,0.388,8.977,0.579,13.464
				c-78.246,80.21-89.941,139.583-85.837,179.079c4.976,47.903,33.188,69.515,33.828,139.515
				c0.458,50.05-13.771,60.054-10.043,104.944c4.801,57.804,32.303,88.249,47.155,120.65c14.354,31.316,22.301,76.698,5.132,143.606
				c-2.406,6.961-4.708,13.202-6.778,18.569C2759.505,3129.54,2745.647,3127.692,2731.055,3125.961z"/>
			
				<linearGradient id="SVGID_00000163045000501389701640000010086575036432013489_" gradientUnits="userSpaceOnUse" x1="-423.7617" y1="2992.4282" x2="-990.4805" y2="2966.668" gradientTransform="matrix(-0.993 0.1177 0.1177 0.993 1497.196 -89.6996)">
				<stop  offset="0" style="stop-color:#AA80F9"/>
				<stop  offset="0.9964" style="stop-color:#6165D7"/>
			</linearGradient>
			<path style="fill:url(#SVGID_00000163045000501389701640000010086575036432013489_);" d="M2682.82,2476.295
				c-38.003,78.267-57.674,139.022-67.992,176.386c-6.294,22.794-11.748,46.446-10.959,76.805
				c0.967,37.192,10.849,67.001,18.843,85.948c11.36,24.182,22.167,52.589,30.157,85.028c25.917,105.202,8.341,196.494-6.94,249.423
				c-10.353,4.839-20.707,9.683-31.059,14.522c-29.799-65.672-67.391-159.222-98.481-275.853
				c-16.981-63.7-30.063-113.677-35.487-178.089c-5.722-67.938-4.967-176.21,39.984-309.224
				C2574.864,2426.259,2628.842,2451.278,2682.82,2476.295z"/>
			<path style="fill:#FFFFFF;" d="M2609.382,1890.199c-66.955,17.296-117.658,33.723-137.796,71.211
				c-21.271,39.596,19.843,64.666,37.218,146.232c26.603,124.875-42.055,178.039-10.642,303.393
				c10.584,42.237,27.889,74.148,39.542,92.996c23.433,16.084,60.344,37.621,109.044,50.254
				c70.87,18.384,103.683,1.562,196.785-0.823c152.284-3.905,178.621,38.174,244.857,5.466
				c66.941-33.057,110.912-111.03,93.62-141.359c-10.358-18.162-37.11-4.069-78.802-23.965
				c-53.732-25.642-48.504-67.155-92.991-98.705c-63.897-45.318-117.15,10.211-171.862-29.267
				c-55.344-39.936-70.425-146.955-53.765-212.789c10.882-43.001,7.38-88.493,14.471-132.277c0.591-3.637,0.816-9.381-1.934-15.645
				c-10.513-23.955-56.026-24.949-90.402-25.38C2654.297,1878.885,2614.886,1888.776,2609.382,1890.199z"/>
			<path style="fill:#EBEFF2;" d="M3076.47,2511.724c-22.143-12.244-14.064-52.829-46.889-71.297
				c-30.465-17.141-50.846,10.269-94.44,0.76c-55.912-12.198-57.413-64.932-111.057-77.356
				c-38.574-8.933-47.923,15.991-102.036,21.52c-54.02,5.522-126.8-10.929-176.469-64.562
				c-21.105-22.789-33.924-47.905-41.719-71.461c-10.595,47.939-22.56,94.426-5.7,161.708
				c10.584,42.237,27.889,74.148,39.542,92.996c23.433,16.084,60.344,37.621,109.044,50.253
				c70.868,18.384,103.683,1.563,196.785-0.822c152.284-3.905,178.621,38.174,244.857,5.466
				c42.783-21.126,76.086-60.57,90.106-94.226C3122.205,2513.241,3092.541,2520.611,3076.47,2511.724z"/>
			
				<linearGradient id="SVGID_00000140706966141004118900000013618767009148165011_" gradientUnits="userSpaceOnUse" x1="-819.7034" y1="2026.9764" x2="-892.1949" y2="2144.2422" gradientTransform="matrix(-0.993 0.1177 0.1177 0.993 1497.196 -89.6996)">
				<stop  offset="0" style="stop-color:#311944"/>
				<stop  offset="1" style="stop-color:#893976"/>
			</linearGradient>
			<path style="fill:url(#SVGID_00000140706966141004118900000013618767009148165011_);" d="M2560.405,1775.902
				c0,0-15.805,36.689-14.942,61.442c0.863,24.752,28.539,20.653,28.539,20.653l0.244,15.64
				c0.209,13.351-7.455,25.575-19.564,31.203l-10.651,4.951c0,0,72.935,9.402,109.776-21.49l-11.369-0.168
				c-16.098-0.239-29.797-11.791-32.749-27.619l-1.231-6.6C2608.46,1853.914,2614.52,1776.031,2560.405,1775.902z"/>
			<g>
				
					<linearGradient id="SVGID_00000085952250361386220450000014103822013642683561_" gradientUnits="userSpaceOnUse" x1="-549.7158" y1="2208.5325" x2="-695.8351" y2="2444.9021" gradientTransform="matrix(-0.993 0.1177 0.1177 0.993 1497.196 -89.6996)">
					<stop  offset="0" style="stop-color:#444B8C"/>
					<stop  offset="0.9964" style="stop-color:#26264F"/>
				</linearGradient>
				<path style="fill:url(#SVGID_00000085952250361386220450000014103822013642683561_);" d="M2487.326,2176.39l-109.047-188.1
					c-1.347-2.322-4.052-3.491-6.667-2.881l-152.569,35.655c-4.074,0.95-6.003,5.628-3.785,9.174l126.538,202.335
					c1.523,2.436,4.542,3.479,7.245,2.502l134.093-48.426L2487.326,2176.39z"/>
				
					<linearGradient id="SVGID_00000180358213907984923060000008477681461902895774_" gradientUnits="userSpaceOnUse" x1="-531.5015" y1="2191.2495" x2="-657.7171" y2="2428.2253" gradientTransform="matrix(-0.9946 0.104 0.104 0.9946 1561.4523 -80.9972)">
					<stop  offset="0" style="stop-color:#FFC444"/>
					<stop  offset="0.9964" style="stop-color:#F36F56"/>
				</linearGradient>
				<path style="fill:url(#SVGID_00000180358213907984923060000008477681461902895774_);" d="M2460.499,2155.041l-88.294-152.304
					c-1.09-1.881-3.281-2.827-5.398-2.333l-123.533,28.869c-3.3,0.77-4.861,4.557-3.065,7.429l102.457,163.83
					c1.233,1.973,3.677,2.816,5.865,2.025l108.574-39.21L2460.499,2155.041z"/>
				
					<linearGradient id="SVGID_00000041989968589003009860000012765852511615514245_" gradientUnits="userSpaceOnUse" x1="-564.6395" y1="2193.3701" x2="-529.8636" y2="2121.2424" gradientTransform="matrix(-0.993 0.1177 0.1177 0.993 1497.196 -89.6996)">
					<stop  offset="0" style="stop-color:#AA80F9"/>
					<stop  offset="0.9964" style="stop-color:#6165D7"/>
				</linearGradient>
				<path style="fill:url(#SVGID_00000041989968589003009860000012765852511615514245_);" d="M2346.147,2004.485l-7.011-12.216
					c-0.975-1.697-2.941-2.562-4.85-2.133l-63.545,14.291c-2.95,0.664-4.401,4.007-2.87,6.614l7.796,13.283
					c0.999,1.702,2.995,2.546,4.911,2.078l62.758-15.359C2346.223,2010.337,2347.626,2007.062,2346.147,2004.485z"/>
				<path style="fill:#FFFFFF;" d="M2262.917,2056.86c0.1-0.011,0.193-0.033,0.292-0.055l111.868-26.4
					c1.385-0.326,2.244-1.715,1.919-3.095c-0.332-1.389-1.764-2.223-3.1-1.913l-111.868,26.401
					c-1.385,0.326-2.244,1.715-1.918,3.095C2260.416,2056.184,2261.639,2057.012,2262.917,2056.86z"/>
				<path style="fill:#FFFFFF;" d="M2269.932,2067.702c0.105-0.013,0.213-0.036,0.317-0.058l111.182-27.444
					c1.385-0.336,2.226-1.734,1.885-3.121c-0.336-1.38-1.718-2.218-3.116-1.88l-111.181,27.443
					c-1.384,0.337-2.227,1.733-1.884,3.121C2267.446,2067.033,2268.664,2067.851,2269.932,2067.702z"/>
				<path style="fill:#FFFFFF;" d="M2328.58,2079.769c0.129-0.015,0.258-0.041,0.386-0.076l60.448-16.678
					c1.375-0.376,2.18-1.798,1.798-3.171c-0.375-1.364-1.819-2.176-3.166-1.794l-60.449,16.679
					c-1.374,0.376-2.178,1.799-1.797,3.173C2326.139,2079.135,2327.341,2079.915,2328.58,2079.769z"/>
			</g>
			
				<linearGradient id="SVGID_00000098902161373303524260000013896065779769252264_" gradientUnits="userSpaceOnUse" x1="-518.8029" y1="2301.9443" x2="-553.8636" y2="2358.6604" gradientTransform="matrix(-0.993 0.1177 0.1177 0.993 1497.196 -89.6996)">
				<stop  offset="0" style="stop-color:#311944"/>
				<stop  offset="1" style="stop-color:#893976"/>
			</linearGradient>
			<path style="fill:url(#SVGID_00000098902161373303524260000013896065779769252264_);" d="M2310.829,2183.054
				c0,0-26.985-14.502-31.187-26.275c-4.201-11.772-5.839-34.579-5.839-34.579l18.032,30.484c0,0,6.884-2.775,8.838-13.647
				c1.954-10.871,8.132-1.746,6.879,6.444C2306.298,2153.669,2310.829,2183.054,2310.829,2183.054z"/>
			<path style="fill:#FFFFFF;" d="M2482.391,1948.24c-12.46,9.497-31.037,25.822-46.373,50.635
				c-43.628,70.59-16.685,138.12-55.851,167.095c-11.2,8.288-31.555,16.193-70.781,6.768l-13.693,9.228
				c0,0-8.294,91.926,101.434,83.86c109.728-8.061,150.011-149.732,150.011-149.732L2482.391,1948.24z"/>
			
				<linearGradient id="SVGID_00000160883448633861212370000013892188533723552915_" gradientUnits="userSpaceOnUse" x1="2737.1077" y1="1708.0654" x2="2951.4224" y2="2252.6362">
				<stop  offset="0" style="stop-color:#444B8C"/>
				<stop  offset="0.9964" style="stop-color:#26264F"/>
			</linearGradient>
			<path style="fill:url(#SVGID_00000160883448633861212370000013892188533723552915_);" d="M2574.499,1809.914
				c3.678-0.613,6.349-5.565,9.001-4.379c2.783,1.24,3.054,8.113,1.14,13.112c-1.571,4.097-4.481,6.581-6.117,7.762
				c3.188,3.721,7.342,9.571,9.525,17.499c4.833,17.533-3.449,32.644-6.689,41.352c-14.617,39.261,17.947,96.719,50.754,124.377
				c26.661,22.484,37.336,11.67,53.699,30.482c31.852,36.612-4.099,82.739,15.051,133.984c29.12,77.92,157.073,91.212,162.372,91.7
				c2.087,0.193,3.489,0.305,5.658,0.468c57.261,4.294,144.049,10.801,200.53-40.586c42.258-38.445,57.951-100.567,50.122-153.487
				c-2.058-13.92-10.702-66.694-57.583-106.464c-7.441-6.311-51.496-43.596-106.514-39.531c-29.14,2.151-34.162,12.899-56.957,8.401
				c-31.208-6.159-52.285-32.321-65.362-48.548c-24.051-29.852-15.903-37.327-32.609-51.605
				c-32.736-27.971-66.194-1.101-100.691-25.323c-34.004-23.874-17.797-61.43-50.401-81.833
				c-33.635-21.04-93.534-7.755-104.113,21.498C2536.225,1773.931,2563.221,1811.793,2574.499,1809.914z"/>
		</g>
	</g>
</g>
</svg>
